Coordinates
version=1
nRows=12
nColumns=32
inDegrees=yes

Units are S.I. units (second, meters, Newtons, ...)
If the header above contains a line with 'inDegrees', this indicates whether rotational values are in degrees (yes) or radians (no).

endheader
time	pelvis_tilt	pelvis_list	pelvis_rotation	pelvis_tx	pelvis_ty	pelvis_tz	hip_flexion_r	hip_adduction_r	hip_rotation_r	knee_angle_r	knee_adduction_r	med_cond_adduction_r	lat_cond_adduction_r	patella_r_constrained_knee_angle	ankle_angle_r	subtalar_angle_r	mtp_angle_r	hip_flexion_l	hip_adduction_l	hip_rotation_l	knee_angle_l	knee_adduction_l	med_cond_adduction_l	lat_cond_adduction_l	patella_l_constrained_knee_angle	ankle_angle_l	subtalar_angle_l	mtp_angle_l	lumbar_extension	lumbar_bending	lumbar_rotation
      0.66666667	     29.04112681	     -7.01791898	    102.34021323	      0.44794887	      1.10687140	     -2.04830556	     19.23392489	     29.93001953	     13.56679066	    -27.23881929	      0.00000000	      0.00000000	     -0.00000000	     -0.47540708	     -7.84205007	      8.24281654	      0.00000000	     -7.79692455	    -30.82764310	      9.88253803	     -9.73058274	     -0.00000000	     -0.00000000	      0.00000000	     -0.16983071	    -23.41200712	      9.28564001	     -0.00000000	      0.00000000	     -0.00000000	      0.00000000
      0.67083333	     28.73950500	     -7.89693666	    101.90453066	      0.45094157	      1.10774344	     -2.06174426	     19.90422685	     29.92943747	     16.08328571	    -24.85920002	     -0.00000000	     -0.00000000	      0.00000000	     -0.43387489	    -10.23307658	      2.48889877	     -0.00000000	     -7.74342554	    -30.55458485	      9.12635182	     -9.48916853	      0.00000000	      0.00000000	     -0.00000000	     -0.16561723	    -25.35857295	      9.88197021	      0.00000000	      0.00000000	     -0.00000000	      0.00000000
      0.67500000	     28.47935485	     -8.76269595	    101.52782083	      0.45388414	      1.10829285	     -2.07562670	     20.52164100	     29.92789065	     18.60789908	    -22.40801873	      0.00000000	      0.00000000	     -0.00000000	     -0.39109371	    -13.23156854	     -3.75036984	      0.00000000	     -7.65569090	    -30.35798300	      8.31142327	     -9.30975523	     -0.00000000	      0.00000000	     -0.00000000	     -0.16248588	    -27.15958944	     10.66077088	      0.00000000	      0.00000000	     -0.00000000	      0.00000000
      0.67916667	     28.22408147	     -9.48049497	    101.09658703	      0.45670840	      1.10876122	     -2.08975589	     20.92602597	     29.92459067	     21.18274316	    -19.90473737	      0.00000000	      0.00000000	     -0.00000000	     -0.34740320	    -16.81818495	    -10.37853210	      0.00000000	     -7.78169953	    -30.19577596	      7.34916672	     -9.12033501	     -0.00000000	      0.00000000	     -0.00000000	     -0.15917987	    -28.75717568	     11.40711237	     -0.00000000	      0.00000000	     -0.00000000	      0.00000000
      0.68333333	     28.01392944	    -10.06046468	    100.59688052	      0.45919623	      1.10903980	     -2.10407785	     21.21208191	     29.91815658	     23.62529915	    -17.54458778	     -0.00000000	      0.00000000	     -0.00000000	     -0.30621082	    -20.52558476	    -16.36035718	     -0.00000000	     -8.10546483	    -30.07642368	      6.22501009	     -8.99065572	      0.00000000	      0.00000000	     -0.00000000	     -0.15691654	    -30.11352113	     12.25401108	      0.00000000	      0.00000000	     -0.00000000	      0.00000000
      0.68750000	     27.88985273	    -10.54512555	     99.97292923	      0.46129227	      1.10903434	     -2.11840595	     21.60341453	     29.90555909	     25.61292611	    -15.81661331	      0.00000000	      0.00000000	     -0.00000000	     -0.27605198	    -22.52917334	    -18.88605800	      0.00000000	     -8.58780099	    -30.02013199	      4.80071159	     -8.96664464	     -0.00000000	      0.00000000	     -0.00000000	     -0.15649747	    -31.08720789	     13.15440787	      0.00000000	      0.00000000	     -0.00000000	      0.00000000
      0.69166667	     27.78581096	    -10.95380908	     99.27170528	      0.46308672	      1.10885482	     -2.13286319	     22.00976484	     29.88323380	     27.27191229	    -14.44491515	     -0.00000000	      0.00000000	     -0.00000000	     -0.25211133	    -23.32124298	    -19.45182427	     -0.00000000	     -9.19950012	    -29.95591369	      3.21972316	     -9.00068145	     -0.00000000	      0.00000000	     -0.00000000	     -0.15709153	    -31.91844765	     13.93763965	     -0.00000000	      0.00000000	     -0.00000000	      0.00000000
      0.69583333	     27.63125762	    -11.29942068	     98.48473839	      0.46474823	      1.10864047	     -2.14747319	     22.35587571	     29.84559394	     28.86097418	    -13.28844672	      0.00000000	     -0.00000000	      0.00000000	     -0.23192715	    -23.76171405	    -19.64215797	      0.00000000	     -9.93985933	    -29.80660601	      1.54806446	     -9.08094558	      0.00000000	     -0.00000000	      0.00000000	     -0.15849240	    -32.61089734	     14.62874280	     -0.00000000	     -0.00000000	     -0.00000000	      0.00000000
      0.70000000	     27.39983419	    -11.61342453	     97.64743049	      0.46634622	      1.10831102	     -2.16223251	     22.68030358	     29.77247913	     30.31577194	    -12.31593753	      0.00000000	     -0.00000000	      0.00000000	     -0.21495366	    -23.94742372	    -19.73384501	     -0.00000000	    -10.73874366	    -29.54558336	     -0.16080055	     -9.20846526	      0.00000000	     -0.00000000	      0.00000000	     -0.16071804	    -33.24169061	     15.18406485	      0.00000000	     -0.00000000	     -0.00000000	      0.00000000
      0.70416667	     27.05637126	    -11.93852891	     96.81342951	      0.46780318	      1.10788416	     -2.17703796	     23.03772879	     29.59877417	     31.63805804	    -11.52561576	     -0.00000000	     -0.00000000	      0.00000000	     -0.20115994	    -23.92135938	    -19.78640210	     -0.00000000	    -11.48757284	    -29.14107618	     -1.77720359	     -9.39023043	      0.00000000	      0.00000000	     -0.00000000	     -0.16389044	    -33.84526026	     15.63724361	     -0.00000000	     -0.00000000	     -0.00000000	      0.00000000
      0.70833333	     26.36895427	    -12.30913855	     95.96347854	      0.46900821	      1.10745766	     -2.19181111	     23.38928494	     29.07893537	     32.95349425	    -10.81237002	      0.00000000	      0.00000000	     -0.00000000	     -0.18871146	    -23.64489246	    -19.82003854	     -0.00000000	    -12.14062080	    -28.31776722	     -3.02427484	     -9.53467098	     -0.00000000	      0.00000000	     -0.00000000	     -0.16641140	    -34.46943949	     15.57138663	     -0.00000000	      0.00000000	     -0.00000000	      0.00000000
      0.71250000	     25.18276617	    -12.85354580	     95.20816070	      0.46988525	      1.10692294	     -2.20627891	     23.91668199	     28.00203387	     34.18223460	    -10.18416812	      0.00000000	     -0.00000000	      0.00000000	     -0.17774727	    -23.08166959	    -19.84329444	      0.00000000	    -12.40384420	    -26.95067455	     -3.61797295	     -9.75070437	     -0.00000000	     -0.00000000	      0.00000000	     -0.17018190	    -35.11678299	     15.20253867	     -0.00000000	      0.00000000	     -0.00000000	      0.00000000
